PathFileType	4	(X/Y/Z)	maxSprint.trc
DataRate	CameraRate	NumFrames	NumMarkers	Units	OrigDataRate	OrigDataStartFrame	OrigNumFrames
250.000000	250.000000	4	38	mm	250.000000	94	377
Frame#	Time	RASI			LASI			LAIC			RTH1			RTH2			RTH3			RTB1			RTB2			RTB3			RMT1			RMT5			LTH1			LTH2			LTH3			LTB1			LTB3			CLAV			STRN			RACR			LACR			LMT5			RPSI			LTB2			LMT1			RAIC			LCAL			T10			C7			LPSI			RCAL			*30			*31			*32			*33			RHJC			LHJC			MTOR			MPEL			
		X1	Y1	Z1	X2	Y2	Z2	X3	Y3	Z3	X4	Y4	Z4	X5	Y5	Z5	X6	Y6	Z6	X7	Y7	Z7	X8	Y8	Z8	X9	Y9	Z9	X10	Y10	Z10	X11	Y11	Z11	X12	Y12	Z12	X13	Y13	Z13	X14	Y14	Z14	X15	Y15	Z15	X16	Y16	Z16	X17	Y17	Z17	X18	Y18	Z18	X19	Y19	Z19	X20	Y20	Z20	X21	Y21	Z21	X22	Y22	Z22	X23	Y23	Z23	X24	Y24	Z24	X25	Y25	Z25	X26	Y26	Z26	X27	Y27	Z27	X28	Y28	Z28	X29	Y29	Z29	X30	Y30	Z30	X31	Y31	Z31	X32	Y32	Z32	X33	Y33	Z33	X34	Y34	Z34	X35	Y35	Z35	X36	Y36	Z36	X37	Y37	Z37	X38	Y38	Z38	

95	0.376	-2210.158935546876	1001.495727539063	282.4239196777345	-2190.711181640626	989.140502929688	69.33184814453128	-2233.444824218751	1065.165405273438	28.58246231079103	-2261.327392578126	762.5952758789065	360.7316284179689	-2182.816162109376	694.832946777344	363.144012451172	-2202.707519531251	596.2366943359377	334.3963928222657	-2157.557617187501	382.9811401367189	220.6240081787111	-2167.856689453126	307.2615356445314	258.2269897460939	-2194.423339843751	250.6183471679689	201.5859375000001	-2136.301025390626	38.49036026000978	179.7928314208985	-2181.427490234376	36.49059295654298	282.6178588867189	-2191.934814453126	661.5460205078127	17.9265251159668	-2246.385253906251	743.1567382812502	6.192078113555912	-2239.134521484376	571.0402832031252	31.55170249938966	-2339.375732421876	484.2573242187502	119.0904388427735	-2453.694824218751	562.7650146484377	130.6085357666016	-2142.649169921876	1418.964233398438	204.7174682617189	-2114.725585937501	1224.639526367188	204.7557373046876	-2260.902832031251	1414.230224609375	408.9826354980471	-2229.650878906251	1456.536376953125	-23.16428184509278	-2708.339843750001	609.4735107421877	29.8682327270508	-2385.882080078126	1042.979125976563	205.4190063476564	-2406.977539062501	517.794372558594	76.90472412109378	-2722.565917968751	590.867126464844	134.6260375976563	-2289.953369140626	1061.721557617188	325.3990173339845	-2576.692871093751	764.9771728515627	136.7955627441407	-2360.448974609376	1239.87939453125	154.8218536376954	-2273.795166015626	1493.400512695313	192.2915344238282	-2370.537109375001	1037.024536132813	109.0931396484376	-2355.390380859376	62.15030288696292	139.6809234619141	-2179.158691406251	519.0072021484377	316.0318908691407	-2308.221923828126	97.53794860839849	212.7772216796876	-2562.081787109376	697.263122558594	75.94275665283206	-2215.567626953126	486.1660766601565	42.42293167114259	-2265.40579414901	947.8376575704406	243.8511482580049	-2252.568951829585	939.6823677155721	103.1958656491418	-2226.749511718751	1445.782836914063	195.7068390846254	-2289.322326660157	1017.659973144532	166.5669784545899	
96	0.38	-2186.915283203126	999.4428710937505	283.6893005371095	-2166.014892578126	986.0168457031255	70.91268157958987	-2208.590820312501	1061.50341796875	29.50795555114748	-2239.600585937501	760.3453369140627	361.2545166015626	-2162.145751953126	690.8319091796877	361.1236267089845	-2185.292724609376	592.6446533203127	333.665252685547	-2145.651367187501	379.4969787597657	218.606658935547	-2157.711914062501	303.155487060547	256.3276672363282	-2185.675048828126	248.0064544677736	199.8165283203126	-2135.343994140626	36.92528533935548	178.3987426757813	-2181.394042968751	37.38313674926759	280.8040466308595	-2154.897705078126	661.8569946289065	18.1845989227295	-2212.748779296876	741.686462402344	6.349513530731205	-2198.600830078126	569.9060058593752	30.81747245788576	-2294.647460937501	483.9612731933596	118.3326416015626	-2410.104248046876	561.0183715820315	128.4812622070313	-2115.956542968751	1416.181030273438	204.5472717285157	-2088.923339843751	1221.2099609375	204.9609832763673	-2232.429199218751	1410.417236328125	410.7425842285159	-2204.402587890626	1453.284790039063	-23.51748085021973	-2662.172607421876	603.9517211914065	23.47655677795411	-2361.824462890626	1041.093139648438	205.0994415283204	-2362.424316406251	516.281921386719	75.58256530761722	-2678.989257812501	585.646423339844	128.000473022461	-2267.117919921876	1057.92578125	325.5948181152345	-2537.228515625001	763.4813232421877	132.7624816894532	-2335.351806640626	1239.367065429688	156.0934448242188	-2247.114013671876	1491.558959960938	192.8044738769532	-2345.920166015626	1033.921630859375	109.1017532348633	-2353.249511718751	62.28766250610354	135.3526153564454	-2162.574218750001	515.486999511719	314.209686279297	-2306.061279296876	99.11699676513678	208.1264495849611	-2519.823730468751	695.4473266601565	72.65165710449222	-2171.896972656251	487.4917297363284	41.92775726318361	-2241.920894469857	945.6923349844066	245.0201811990721	-2228.125212219128	936.8302431937518	104.573111180614	-2199.975585937501	1442.860504150391	196.1442122459413	-2265.168701171876	1015.118621826172	167.2007942199708	
97	0.384	-2163.863769531251	997.5171508789067	284.8312377929689	-2140.877197265626	983.1015625000005	72.41609954833987	-2183.900146484376	1058.001220703125	30.25638961791994	-2218.333984375001	758.7188110351565	361.2191772460939	-2142.272705078126	687.000915527344	359.2669982910157	-2169.190917968751	589.5020751953127	332.6932067871095	-2133.638427734376	375.5426330566407	217.2938385009767	-2148.764404296876	300.1429443359376	254.5386810302736	-2177.736328125001	245.3377838134767	197.5850067138673	-2134.479492187501	35.50414276123048	177.342025756836	-2180.660156250001	38.3427200317383	279.0594787597657	-2117.412597656251	664.5294189453127	18.63031768798829	-2178.186523437501	742.155456542969	6.872088909149173	-2157.196777343751	570.8784790039065	29.88721084594728	-2249.915527343751	483.9073486328127	117.9481964111329	-2366.567138671876	559.4619140625002	126.4374008178712	-2089.356201171876	1413.54833984375	203.8319549560548	-2063.210449218751	1217.790405273438	205.1588592529298	-2203.854980468751	1406.996215820313	412.3721008300784	-2178.906005859376	1450.505615234375	-23.58911895751954	-2616.197265625001	597.2673339843752	17.61488151550294	-2337.527587890626	1039.755126953125	204.5253906250001	-2317.711669921876	515.0864868164065	74.47135162353518	-2635.764648437501	579.233093261719	121.540138244629	-2244.921630859376	1054.73681640625	325.5677795410157	-2499.325927734376	760.9729614257815	129.035385131836	-2310.247558593751	1238.749755859375	157.3963928222657	-2220.386474609376	1489.816162109375	193.165008544922	-2321.151123046876	1031.396728515625	108.7678298950196	-2351.442626953126	63.18537139892581	131.2968902587891	-2147.657714843751	512.3108520507815	312.4811401367189	-2303.759521484376	100.6321716308594	204.0149078369142	-2478.332519531251	692.9616699218752	69.69049072265628	-2127.648925781251	490.4447326660159	41.84582138061525	-2218.630502577488	943.8002932019539	245.8577387913652	-2203.457797672248	934.2850220261973	105.6492652204214	-2173.125915527345	1440.216583251953	196.4449863433839	-2240.854919433595	1012.942642211914	167.6351394653321	
98	0.388	-2138.566894531251	995.468872070313	287.3521728515626	-2115.578613281251	980.3370971679692	74.00971221923831	-2159.430175781251	1054.760986328125	30.87180519104005	-2197.427734375001	757.0786132812502	360.8863525390626	-2123.715332031251	683.1590576171877	358.583953857422	-2153.906738281251	586.7920532226565	331.3663635253907	-2121.962890625001	371.1479492187501	215.9244232177736	-2141.718750000001	296.5682067871095	252.5721893310548	-2170.831542968751	242.8825683593751	194.5512542724611	-2133.696533203126	34.46614074707033	176.6975097656251	-2180.629394531251	38.91173934936525	277.9113159179689	-2079.690185546876	668.658874511719	19.36620903015137	-2143.404785156251	743.7337646484377	7.730041980743412	-2115.566650390626	573.1541137695315	28.7767791748047	-2204.968017578126	484.5201110839846	117.3919372558594	-2322.961669921876	557.9779052734377	124.6705322265626	-2062.734130859376	1411.039428710938	203.3580627441407	-2037.594848632813	1214.686767578125	205.611053466797	-2175.286865234376	1404.239135742188	413.5894470214846	-2153.417480468751	1448.043212890625	-23.65658378601075	-2570.819580078126	589.9523925781252	11.42489528656006	-2312.872314453126	1038.79638671875	203.9420166015626	-2273.039062500001	514.2041625976565	73.42924499511722	-2592.654785156251	571.5665283203127	115.2020950317383	-2222.702636718751	1052.141479492188	325.6062011718751	-2462.449707031251	757.8955688476565	124.9356994628907	-2285.112304687501	1237.874633789063	158.6038208007813	-2193.505615234376	1488.562622070313	193.527069091797	-2296.111816406251	1029.447387695313	108.3016510009766	-2349.534179687501	64.28208160400393	128.0312957763672	-2134.105468750001	509.4323730468752	310.7312927246095	-2301.618896484376	102.176124572754	200.5143280029298	-2437.827636718751	690.0722656250002	66.71607971191409	-2084.109863281251	494.4765625000002	40.90366744995119	-2193.906141301149	941.7112923802908	248.3376674074359	-2178.732315411854	931.7232939185018	107.5171633765512	-2146.23602294922	1437.971099853516	196.7044987678529	-2215.78240966797	1011.012435913086	168.401388168335	
